<?xml version="1.0" encoding="UTF-8"?>
<!DOCTYPE svg PUBLIC "-//W3C//DTD SVG 1.1//EN" "http://www.w3.org/Graphics/SVG/1.1/DTD/svg11.dtd">

<svg xmlns="http://www.w3.org/2000/svg" xml:space="preserve" width="215mm" height="120mm" version="1.1" style="shape-rendering:geometricPrecision; text-rendering:geometricPrecision; image-rendering:optimizeQuality; fill-rule:evenodd; clip-rule:evenodd" viewBox="0 0 21500 12000" xmlns:xlink="http://www.w3.org/1999/xlink" xmlns:xodm="http://www.corel.com/coreldraw/odm/2003">
    <defs>
        <style type="text/css">

        <!-- !4!78FAE! -->

    .str1 {stroke:#141414;stroke-width:52.92;stroke-miterlimit:22.9256}
    .str0 {stroke:#141414;stroke-width:20;stroke-miterlimit:22.9256}
    .fil1 {fill:none}
    .fil0 {fill:#141414}
    .fil2 {fill:#141414;fill-rule:nonzero}

  </style>

    </defs>
    <g >
        <g>
            <circle class="fil0 str0" cx="6092.23" cy="906.19" r="726.12"></circle>
            <circle class="fil0 str0" cx="7795.61" cy="2611.83" r="726.12"></circle>
            <circle class="fil0 str0" cx="4388.91" cy="2611.83" r="726.12"></circle>
            <circle class="fil1 str1" cx="2694.18" cy="4291.51" r="726.12"></circle>
            <circle class="fil0 str0" cx="982.19" cy="6002.55" r="726.12"></circle>
            <circle class="fil0 str0" cx="2693.56" cy="7697.92" r="726.12"></circle>
            <circle class="fil1 str1" cx="4404.9" cy="9393.27" r="726.12"></circle>
            <circle class="fil1 str1" cx="7779.63" cy="9393.27" r="726.12"></circle>
            <circle class="fil0 str0" cx="6092.23" cy="11108.07" r="726.12"></circle>
            <polygon class="fil2" points="20040.58,6973.99 20040.58,5618.29 19367.22,5618.29 19367.22,5199.86 21242.87,5199.86 21242.87,5618.29 20536.85,5618.29 20536.85,6973.99 "></polygon>
            <path class="fil2" d="M16966.06 6973.99l0 -1774.13 1010.1 0c254.9,0 816.07,-0.7 815.32,643.68 -0.62,533.94 -409.16,697.89 -590.93,697.89l-746.34 0 0 432.56 -488.15 0zm488.15 -1424.18l0 581.42 359.39 0.55c168.99,0.25 293.51,-22.94 374.12,-67.93 80.38,-44.87 121.26,-115.01 121.26,-209.64 0,-100.54 -47.14,-181.9 -140.61,-243.63 -93.92,-62.04 -217.67,-59.97 -369.6,-60.22l-344.56 -0.55z"></path>
            <polygon class="fil2" points="15221.04,6973.99 15221.04,6307.24 14416.64,5199.86 14979.71,5199.86 15457.53,5888.2 15898.43,5199.86 16431.55,5199.86 15717.49,6307.24 15717.05,6973.99 "></polygon>
            <path class="fil2" d="M12166.48 6973.99l0 -1774.13 1272.65 0c170.61,0 557.38,129.41 564.1,585.23 5.15,349.4 -120.3,534.23 -340.14,637.52l400.53 551.38 -548.14 -3.6 -356.88 -547.78 -523.29 0 0 -422.28c240.97,0 827.04,53.43 832.66,-212.99 4.16,-196.95 -595.08,-217.18 -832.66,-152.61l0 1339.26 -468.83 0z"></path>
            <path class="fil2" d="M11534.49 6878.06c-77.88,83.72 -1745.71,386.98 -1756.4,-773.02 -11.61,-1258.8 1651.8,-849.57 1756.4,-809.18l0 420.73c0,-81.36 -306.99,-145.96 -599.88,-152.87 -317.32,-7.5 -649.88,62.66 -653.24,524.15 -5.79,794.46 919.57,513.97 1253.12,404.66l0 385.53z"></path>
            <polygon class="fil2" points="7208.81,6973.99 7208.81,5199.86 7716.32,5199.86 8614.65,6287.74 8626.68,5199.86 9069.58,5199.86 9069.58,6973.99 8630.52,6973.99 7695.02,5876.07 7695.02,6973.99 "></polygon>
            <polygon class="fil2" points="4857.72,6974.3 4857.72,5200.17 6507.68,5199.86 6507.68,5625.68 5564.82,5625.68 5564.82,5873.28 6311.14,5873.28 6311.14,6335.23 5564.82,6335.23 5564.82,6552.99 6554.12,6552.99 6554.12,6973.99 "></polygon>
        </g>
    </g>
</svg>
